<?xml version="1.0" encoding="UTF-8"?>
<!--Unoptimized SVG yippee-->
<!DOCTYPE svg PUBLIC "-//W3C//DTD SVG 1.1//EN" "http://www.w3.org/Graphics/SVG/1.1/DTD/svg11.dtd">
<svg xmlns="http://www.w3.org/2000/svg" version="1.1" width="300px" height="300px" style="shape-rendering:geometricPrecision; text-rendering:geometricPrecision; image-rendering:optimizeQuality; fill-rule:evenodd; clip-rule:evenodd" xmlns:xlink="http://www.w3.org/1999/xlink">
<g><path style="opacity:1" fill="#acadac" d="M 132.5,58.5 C 134.283,68.5289 131.616,70.5289 124.5,64.5C 124.335,61.1501 124.502,57.8168 125,54.5C 127.448,55.9732 129.948,57.3065 132.5,58.5 Z"/></g>
<g><path style="opacity:1" fill="#acadac" d="M 116.5,61.5 C 116.817,64.5719 116.484,67.5719 115.5,70.5C 112.807,69.1534 110.14,67.8201 107.5,66.5C 107.335,63.1501 107.502,59.8168 108,56.5C 110.979,58.067 113.812,59.7337 116.5,61.5 Z"/></g>
<g><path style="opacity:1" fill="#cbcccb" d="M 132.5,58.5 C 143.833,64.1667 155.167,69.8333 166.5,75.5C 166.82,78.8984 166.487,82.2317 165.5,85.5C 162.921,84.2939 160.421,82.9606 158,81.5C 157.667,84.8333 157.333,88.1667 157,91.5C 154.552,90.0268 152.052,88.6935 149.5,87.5C 149.665,84.1501 149.498,80.8168 149,77.5C 143.912,74.7057 138.745,72.039 133.5,69.5C 132.833,72.5 132.167,75.5 131.5,78.5C 126.833,76.1667 122.167,73.8333 117.5,71.5C 116.676,74.7848 116.176,78.1182 116,81.5C 113.579,80.0394 111.079,78.7061 108.5,77.5C 107.669,84.1419 107.169,90.8085 107,97.5C 104.552,96.0268 102.052,94.6935 99.5,93.5C 99.5,89.8333 99.5,86.1667 99.5,82.5C 99.5,79.5 99.5,76.5 99.5,73.5C 101.928,74.2122 104.261,75.2122 106.5,76.5C 107.487,73.2317 107.82,69.8984 107.5,66.5C 110.14,67.8201 112.807,69.1534 115.5,70.5C 116.484,67.5719 116.817,64.5719 116.5,61.5C 119.167,62.5 121.833,63.5 124.5,64.5C 131.616,70.5289 134.283,68.5289 132.5,58.5 Z"/></g>
<g><path style="opacity:1" fill="#acadac" d="M 107.5,66.5 C 107.82,69.8984 107.487,73.2317 106.5,76.5C 104.261,75.2122 101.928,74.2122 99.5,73.5C 99.3347,69.8183 99.5014,66.1516 100,62.5C 102.448,63.9732 104.948,65.3065 107.5,66.5 Z"/></g>
<g><path style="opacity:1" fill="#acacac" d="M 149.5,87.5 C 146.948,86.3065 144.448,84.9732 142,83.5C 141.824,86.8818 141.324,90.2152 140.5,93.5C 137.921,92.2939 135.421,90.9606 133,89.5C 132.502,92.8168 132.335,96.1501 132.5,99.5C 129.948,98.3065 127.448,96.9732 125,95.5C 124.824,98.8818 124.324,102.215 123.5,105.5C 121.5,104.5 119.5,103.5 117.5,102.5C 116.513,105.768 116.18,109.102 116.5,112.5C 116.5,115.833 116.5,119.167 116.5,122.5C 113.753,121.044 110.92,119.711 108,118.5C 105.216,119.473 102.716,120.806 100.5,122.5C 89.5366,119.991 89.2032,117.324 99.5,114.5C 101.944,115.222 104.278,116.222 106.5,117.5C 107.657,114.216 107.824,110.882 107,107.5C 104.552,106.027 102.052,104.693 99.5,103.5C 99.5,100.167 99.5,96.8333 99.5,93.5C 102.052,94.6935 104.552,96.0268 107,97.5C 107.169,90.8085 107.669,84.1419 108.5,77.5C 111.079,78.7061 113.579,80.0394 116,81.5C 116.176,78.1182 116.676,74.7848 117.5,71.5C 122.167,73.8333 126.833,76.1667 131.5,78.5C 132.167,75.5 132.833,72.5 133.5,69.5C 138.745,72.039 143.912,74.7057 149,77.5C 149.498,80.8168 149.665,84.1501 149.5,87.5 Z"/></g>
<g><path style="opacity:1" fill="#acadac" d="M 166.5,75.5 C 169.052,76.6935 171.552,78.0268 174,79.5C 174.494,81.1341 174.66,82.8008 174.5,84.5C 174.5,86.1667 174.5,87.8333 174.5,89.5C 172.072,88.7878 169.739,87.7878 167.5,86.5C 166.669,93.1419 166.169,99.8085 166,106.5C 163.579,105.039 161.079,103.706 158.5,102.5C 157.833,105.5 157.167,108.5 156.5,111.5C 154.5,110.5 152.5,109.5 150.5,108.5C 149.513,111.768 149.18,115.102 149.5,118.5C 146.948,117.307 144.448,115.973 142,114.5C 141.502,117.817 141.335,121.15 141.5,124.5C 141.5,127.833 141.5,131.167 141.5,134.5C 138.378,133.439 135.378,132.105 132.5,130.5C 132.823,126.774 132.489,123.107 131.5,119.5C 128.941,118.392 126.608,117.059 124.5,115.5C 124.183,112.428 124.516,109.428 125.5,106.5C 127.5,107.5 129.5,108.5 131.5,109.5C 132.487,106.232 132.82,102.898 132.5,99.5C 135.14,100.82 137.807,102.153 140.5,103.5C 141.167,100.5 141.833,97.5 142.5,94.5C 144.5,95.5 146.5,96.5 148.5,97.5C 149.487,94.2317 149.82,90.8984 149.5,87.5C 152.052,88.6935 154.552,90.0268 157,91.5C 157.333,88.1667 157.667,84.8333 158,81.5C 160.421,82.9606 162.921,84.2939 165.5,85.5C 166.487,82.2317 166.82,78.8984 166.5,75.5 Z"/></g>
<g><path style="opacity:1" fill="#acadac" d="M 99.5,82.5 C 99.5,86.1667 99.5,89.8333 99.5,93.5C 96.8333,92.1667 94.1667,90.8333 91.5,89.5C 91.1796,86.1016 91.513,82.7683 92.5,79.5C 94.7388,80.7878 97.0721,81.7878 99.5,82.5 Z"/></g>
<g><path style="opacity:1" fill="#cbcccb" d="M 149.5,87.5 C 149.82,90.8984 149.487,94.2317 148.5,97.5C 146.5,96.5 144.5,95.5 142.5,94.5C 141.833,97.5 141.167,100.5 140.5,103.5C 137.807,102.153 135.14,100.82 132.5,99.5C 132.335,96.1501 132.502,92.8168 133,89.5C 135.421,90.9606 137.921,92.2939 140.5,93.5C 141.324,90.2152 141.824,86.8818 142,83.5C 144.448,84.9732 146.948,86.3065 149.5,87.5 Z"/></g>
<g><path style="opacity:1" fill="#a5a5a5" d="M 174.5,84.5 C 202.357,98.2613 230.023,112.261 257.5,126.5C 255.365,128.071 253.032,129.404 250.5,130.5C 247.622,132.105 244.622,133.439 241.5,134.5C 238.515,133.674 235.849,132.341 233.5,130.5C 235.473,129.513 237.473,128.513 239.5,127.5C 240.833,126.833 240.833,126.167 239.5,125.5C 223.589,117.628 207.756,109.628 192,101.5C 191.503,103.81 191.337,106.143 191.5,108.5C 188.86,107.18 186.193,105.847 183.5,104.5C 182.833,100.833 182.167,97.1667 181.5,93.5C 178.941,92.3924 176.608,91.0591 174.5,89.5C 174.5,87.8333 174.5,86.1667 174.5,84.5 Z"/></g>
<g><path style="opacity:1" fill="#cbcccb" d="M 174.5,89.5 C 176.608,91.0591 178.941,92.3924 181.5,93.5C 182.167,97.1667 182.833,100.833 183.5,104.5C 186.193,105.847 188.86,107.18 191.5,108.5C 191.82,111.898 191.487,115.232 190.5,118.5C 187.921,117.294 185.421,115.961 183,114.5C 182.667,117.833 182.333,121.167 182,124.5C 179.667,123.167 177.333,121.833 175,120.5C 174.824,123.882 174.324,127.215 173.5,130.5C 171.5,129.5 169.5,128.5 167.5,127.5C 166.516,130.428 166.183,133.428 166.5,136.5C 163.378,135.439 160.378,134.105 157.5,132.5C 157.665,129.15 157.498,125.817 157,122.5C 154.552,121.027 152.052,119.693 149.5,118.5C 149.18,115.102 149.513,111.768 150.5,108.5C 152.5,109.5 154.5,110.5 156.5,111.5C 157.167,108.5 157.833,105.5 158.5,102.5C 161.079,103.706 163.579,105.039 166,106.5C 166.169,99.8085 166.669,93.1419 167.5,86.5C 169.739,87.7878 172.072,88.7878 174.5,89.5 Z"/></g>
<g><path style="opacity:1" fill="#cbcccb" d="M 91.5,89.5 C 94.1667,90.8333 96.8333,92.1667 99.5,93.5C 99.5,96.8333 99.5,100.167 99.5,103.5C 101.283,113.529 98.6161,115.529 91.5,109.5C 91.5,106.833 91.5,104.167 91.5,101.5C 91.5,97.5 91.5,93.5 91.5,89.5 Z"/></g>
<g><path style="opacity:1" fill="#cbcccb" d="M 132.5,99.5 C 132.82,102.898 132.487,106.232 131.5,109.5C 129.5,108.5 127.5,107.5 125.5,106.5C 124.516,109.428 124.183,112.428 124.5,115.5C 121.833,114.5 119.167,113.5 116.5,112.5C 116.18,109.102 116.513,105.768 117.5,102.5C 119.5,103.5 121.5,104.5 123.5,105.5C 124.324,102.215 124.824,98.8818 125,95.5C 127.448,96.9732 129.948,98.3065 132.5,99.5 Z"/></g>
<g><path style="opacity:1" fill="#b0b1b0" d="M 91.5,101.5 C 91.5,104.167 91.5,106.833 91.5,109.5C 88.6223,111.105 85.6223,112.439 82.5,113.5C 79.5152,112.674 76.8485,111.341 74.5,109.5C 80.0414,106.563 85.7081,103.896 91.5,101.5 Z"/></g>
<g><path style="opacity:1" fill="#848384" d="M 99.5,103.5 C 102.052,104.693 104.552,106.027 107,107.5C 107.824,110.882 107.657,114.216 106.5,117.5C 104.278,116.222 101.944,115.222 99.5,114.5C 89.2032,117.324 89.5366,119.991 100.5,122.5C 108.5,126.833 116.5,131.167 124.5,135.5C 121.348,137.254 118.015,138.087 114.5,138C 106.833,134.167 99.1667,130.333 91.5,126.5C 88.6714,127.747 86.0048,129.247 83.5,131C 96.9897,137.578 110.323,144.411 123.5,151.5C 121.222,153.223 118.722,154.556 116,155.5C 113.106,154.303 110.273,152.97 107.5,151.5C 104.807,152.847 102.14,154.18 99.5,155.5C 88.2432,150.538 77.2432,145.038 66.5,139C 71.8333,136.333 77.1667,133.667 82.5,131C 79.9952,129.247 77.3286,127.747 74.5,126.5C 68.9323,129.451 63.2657,132.118 57.5,134.5C 54.5152,133.674 51.8485,132.341 49.5,130.5C 52.0316,129.404 54.3649,128.071 56.5,126.5C 62.4835,123.843 68.4835,121.176 74.5,118.5C 77.5247,119.429 80.3581,120.762 83,122.5C 85.5829,121.126 88.0829,119.626 90.5,118C 87.6089,116.726 84.9422,115.226 82.5,113.5C 85.6223,112.439 88.6223,111.105 91.5,109.5C 98.6161,115.529 101.283,113.529 99.5,103.5 Z"/></g>
<g><path style="opacity:1" fill="#acadac" d="M 191.5,108.5 C 193.807,109.653 196.14,110.82 198.5,112C 199.252,112.671 199.586,113.504 199.5,114.5C 199.5,117.167 199.5,119.833 199.5,122.5C 197.072,121.788 194.739,120.788 192.5,119.5C 191.503,126.134 191.17,132.8 191.5,139.5C 188.86,138.18 186.193,136.847 183.5,135.5C 182.513,138.768 182.18,142.102 182.5,145.5C 182.5,148.833 182.5,152.167 182.5,155.5C 179.833,154.167 177.167,152.833 174.5,151.5C 176.342,143.898 173.675,139.231 166.5,137.5C 166.5,137.167 166.5,136.833 166.5,136.5C 166.183,133.428 166.516,130.428 167.5,127.5C 169.5,128.5 171.5,129.5 173.5,130.5C 174.324,127.215 174.824,123.882 175,120.5C 177.333,121.833 179.667,123.167 182,124.5C 182.333,121.167 182.667,117.833 183,114.5C 185.421,115.961 187.921,117.294 190.5,118.5C 191.487,115.232 191.82,111.898 191.5,108.5 Z"/></g>
<g><path style="opacity:1" fill="#a2a3a2" d="M 74.5,109.5 C 76.8485,111.341 79.5152,112.674 82.5,113.5C 84.9422,115.226 87.6089,116.726 90.5,118C 88.0829,119.626 85.5829,121.126 83,122.5C 80.3581,120.762 77.5247,119.429 74.5,118.5C 68.4835,121.176 62.4835,123.843 56.5,126.5C 54.3649,124.929 52.0316,123.596 49.5,122.5C 57.6416,117.928 65.9749,113.595 74.5,109.5 Z"/></g>
<g><path style="opacity:1" fill="#807f80" d="M 233.5,130.5 C 222.167,125.167 210.833,119.833 199.5,114.5C 199.586,113.504 199.252,112.671 198.5,112C 196.14,110.82 193.807,109.653 191.5,108.5C 191.337,106.143 191.503,103.81 192,101.5C 207.756,109.628 223.589,117.628 239.5,125.5C 240.833,126.167 240.833,126.833 239.5,127.5C 237.473,128.513 235.473,129.513 233.5,130.5 Z"/></g>
<g><path style="opacity:1" fill="#858685" d="M 116.5,112.5 C 119.167,113.5 121.833,114.5 124.5,115.5C 126.608,117.059 128.941,118.392 131.5,119.5C 132.489,123.107 132.823,126.774 132.5,130.5C 127.167,127.833 121.833,125.167 116.5,122.5C 116.5,119.167 116.5,115.833 116.5,112.5 Z"/></g>
<g><path style="opacity:1" fill="#858685" d="M 149.5,118.5 C 149.5,121.833 149.5,125.167 149.5,128.5C 146.833,127.167 144.167,125.833 141.5,124.5C 141.335,121.15 141.502,117.817 142,114.5C 144.448,115.973 146.948,117.307 149.5,118.5 Z"/></g>
<g><path style="opacity:1" fill="#6a6969" d="M 199.5,114.5 C 210.833,119.833 222.167,125.167 233.5,130.5C 235.849,132.341 238.515,133.674 241.5,134.5C 243.942,136.226 246.609,137.726 249.5,139C 241.167,143.167 232.833,147.333 224.5,151.5C 222.004,150.42 219.67,149.086 217.5,147.5C 222.5,144.667 227.5,141.833 232.5,139C 221.473,133.487 210.473,127.987 199.5,122.5C 199.5,119.833 199.5,117.167 199.5,114.5 Z"/></g>
<g><path style="opacity:1" fill="#565656" d="M 116.5,122.5 C 121.833,125.167 127.167,127.833 132.5,130.5C 135.378,132.105 138.378,133.439 141.5,134.5C 146.28,137.392 151.28,140.059 156.5,142.5C 157.487,139.232 157.82,135.898 157.5,132.5C 160.378,134.105 163.378,135.439 166.5,136.5C 166.5,136.833 166.5,137.167 166.5,137.5C 166.335,140.85 166.502,144.183 167,147.5C 169.448,148.973 171.948,150.307 174.5,151.5C 177.167,152.833 179.833,154.167 182.5,155.5C 185.696,156.929 188.696,158.595 191.5,160.5C 188.515,161.326 185.849,162.659 183.5,164.5C 183.167,164.5 182.833,164.5 182.5,164.5C 168.818,156.992 154.818,149.992 140.5,143.5C 135.484,140.326 130.151,137.659 124.5,135.5C 116.5,131.167 108.5,126.833 100.5,122.5C 102.716,120.806 105.216,119.473 108,118.5C 110.92,119.711 113.753,121.044 116.5,122.5 Z"/></g>
<g><path style="opacity:1" fill="#acadac" d="M 149.5,118.5 C 152.052,119.693 154.552,121.027 157,122.5C 157.498,125.817 157.665,129.15 157.5,132.5C 154.833,131.167 152.167,129.833 149.5,128.5C 149.5,125.167 149.5,121.833 149.5,118.5 Z"/></g>
<g><path style="opacity:1" fill="#cbcccb" d="M 199.5,122.5 C 199.5,126.167 199.5,129.833 199.5,133.5C 199.5,136.833 199.5,140.167 199.5,143.5C 196.833,142.167 194.167,140.833 191.5,139.5C 191.17,132.8 191.503,126.134 192.5,119.5C 194.739,120.788 197.072,121.788 199.5,122.5 Z"/></g>
<g><path style="opacity:1" fill="#b0b1b0" d="M 49.5,122.5 C 52.0316,123.596 54.3649,124.929 56.5,126.5C 54.3649,128.071 52.0316,129.404 49.5,130.5C 46.5152,129.674 43.8485,128.341 41.5,126.5C 43.8485,124.659 46.5152,123.326 49.5,122.5 Z"/></g>
<g><path style="opacity:1" fill="#676867" d="M 141.5,124.5 C 144.167,125.833 146.833,127.167 149.5,128.5C 152.167,129.833 154.833,131.167 157.5,132.5C 157.82,135.898 157.487,139.232 156.5,142.5C 151.28,140.059 146.28,137.392 141.5,134.5C 141.5,131.167 141.5,127.833 141.5,124.5 Z"/></g>
<g><path style="opacity:1" fill="#a2a3a2" d="M 41.5,126.5 C 43.8485,128.341 46.5152,129.674 49.5,130.5C 51.8485,132.341 54.5152,133.674 57.5,134.5C 55.1515,136.341 52.4848,137.674 49.5,138.5C 46.492,137.58 43.6587,136.246 41,134.5C 38.3413,136.246 35.508,137.58 32.5,138.5C 29.5152,137.674 26.8485,136.341 24.5,134.5C 30.0414,131.563 35.7081,128.896 41.5,126.5 Z"/></g>
<g><path style="opacity:1" fill="#6a6969" d="M 99.5,155.5 C 107.642,160.072 115.975,164.405 124.5,168.5C 132.69,172.762 141.024,176.762 149.5,180.5C 152.502,179.666 155.168,178.333 157.5,176.5C 160.596,175.453 163.596,174.12 166.5,172.5C 168.996,173.58 171.33,174.914 173.5,176.5C 171.302,178.098 168.969,179.431 166.5,180.5C 163.304,181.929 160.304,183.595 157.5,185.5C 154.849,186.49 152.183,187.49 149.5,188.5C 146.817,187.49 144.151,186.49 141.5,185.5C 138.696,183.595 135.696,181.929 132.5,180.5C 115.833,172.167 99.1667,163.833 82.5,155.5C 79.6223,153.895 76.6223,152.561 73.5,151.5C 65.5,147.167 57.5,142.833 49.5,138.5C 52.4848,137.674 55.1515,136.341 57.5,134.5C 63.2657,132.118 68.9323,129.451 74.5,126.5C 77.3286,127.747 79.9952,129.247 82.5,131C 77.1667,133.667 71.8333,136.333 66.5,139C 77.2432,145.038 88.2432,150.538 99.5,155.5 Z"/></g>
<g><path style="opacity:1" fill="#7c7d7c" d="M 124.5,135.5 C 130.151,137.659 135.484,140.326 140.5,143.5C 138.193,144.653 135.86,145.82 133.5,147C 135.833,148.5 138.167,150 140.5,151.5C 138.167,153 135.833,154.5 133.5,156C 141.745,160.039 149.911,164.206 158,168.5C 160.642,166.762 163.475,165.429 166.5,164.5C 169.525,165.429 172.358,166.762 175,168.5C 177.448,167.027 179.948,165.693 182.5,164.5C 182.833,164.5 183.167,164.5 183.5,164.5C 186.032,165.596 188.365,166.929 190.5,168.5C 185.368,170.9 180.368,173.566 175.5,176.5C 177.698,178.098 180.031,179.431 182.5,180.5C 180.151,182.341 177.485,183.674 174.5,184.5C 171.515,183.674 168.849,182.341 166.5,180.5C 168.969,179.431 171.302,178.098 173.5,176.5C 171.33,174.914 168.996,173.58 166.5,172.5C 163.596,174.12 160.596,175.453 157.5,176.5C 149.31,172.238 140.976,168.238 132.5,164.5C 129.498,165.334 126.832,166.667 124.5,168.5C 115.975,164.405 107.642,160.072 99.5,155.5C 102.14,154.18 104.807,152.847 107.5,151.5C 110.273,152.97 113.106,154.303 116,155.5C 118.722,154.556 121.222,153.223 123.5,151.5C 110.323,144.411 96.9897,137.578 83.5,131C 86.0048,129.247 88.6714,127.747 91.5,126.5C 99.1667,130.333 106.833,134.167 114.5,138C 118.015,138.087 121.348,137.254 124.5,135.5 Z"/></g>
<g><path style="opacity:1" fill="#b0b1b0" d="M 257.5,126.5 C 263.292,128.896 268.959,131.563 274.5,134.5C 272.151,136.341 269.485,137.674 266.5,138.5C 260.849,136.341 255.516,133.674 250.5,130.5C 253.032,129.404 255.365,128.071 257.5,126.5 Z"/></g>
<g><path style="opacity:1" fill="#807f80" d="M 199.5,122.5 C 210.473,127.987 221.473,133.487 232.5,139C 227.5,141.833 222.5,144.667 217.5,147.5C 219.67,149.086 222.004,150.42 224.5,151.5C 232.833,147.333 241.167,143.167 249.5,139C 246.609,137.726 243.942,136.226 241.5,134.5C 244.622,133.439 247.622,132.105 250.5,130.5C 255.516,133.674 260.849,136.341 266.5,138.5C 266.5,138.833 266.5,139.167 266.5,139.5C 263.515,140.326 260.849,141.659 258.5,143.5C 255.515,144.326 252.849,145.659 250.5,147.5C 247.515,148.326 244.849,149.659 242.5,151.5C 236.516,154.157 230.516,156.824 224.5,159.5C 221.475,158.571 218.642,157.238 216,155.5C 213.417,156.874 210.917,158.374 208.5,160C 211.167,161.333 213.833,162.667 216.5,164C 208.281,167.941 200.281,172.108 192.5,176.5C 189.167,177.833 185.833,179.167 182.5,180.5C 180.031,179.431 177.698,178.098 175.5,176.5C 180.368,173.566 185.368,170.9 190.5,168.5C 193.378,166.895 196.378,165.561 199.5,164.5C 201.928,165.212 204.261,166.212 206.5,167.5C 207.497,160.866 207.83,154.2 207.5,147.5C 209.342,139.898 206.675,135.231 199.5,133.5C 199.5,129.833 199.5,126.167 199.5,122.5 Z"/></g>
<g><path style="opacity:1" fill="#acadac" d="M 199.5,133.5 C 206.675,135.231 209.342,139.898 207.5,147.5C 204.833,146.167 202.167,144.833 199.5,143.5C 199.5,140.167 199.5,136.833 199.5,133.5 Z"/></g>
<g><path style="opacity:1" fill="#b0b1b0" d="M 24.5,134.5 C 26.8485,136.341 29.5152,137.674 32.5,138.5C 32.5,138.833 32.5,139.167 32.5,139.5C 29.5152,140.326 26.8485,141.659 24.5,143.5C 21.6223,141.895 18.6223,140.561 15.5,139.5C 18.3037,137.595 21.3037,135.929 24.5,134.5 Z"/></g>
<g><path style="opacity:1" fill="#838283" d="M 49.5,138.5 C 57.5,142.833 65.5,147.167 73.5,151.5C 71.3649,153.071 69.0316,154.404 66.5,155.5C 63.1667,154.167 59.8333,152.833 56.5,151.5C 48.8177,146.992 40.8177,142.992 32.5,139.5C 32.5,139.167 32.5,138.833 32.5,138.5C 35.508,137.58 38.3413,136.246 41,134.5C 43.6587,136.246 46.492,137.58 49.5,138.5 Z"/></g>
<g><path style="opacity:1" fill="#a2a3a2" d="M 274.5,134.5 C 277.696,135.929 280.696,137.595 283.5,139.5C 280.378,140.561 277.378,141.895 274.5,143.5C 272.151,141.659 269.485,140.326 266.5,139.5C 266.5,139.167 266.5,138.833 266.5,138.5C 269.485,137.674 272.151,136.341 274.5,134.5 Z"/></g>
<g><path style="opacity:1" fill="#cbcccb" d="M 191.5,139.5 C 191.5,142.833 191.5,146.167 191.5,149.5C 188.622,147.895 185.622,146.561 182.5,145.5C 182.18,142.102 182.513,138.768 183.5,135.5C 186.193,136.847 188.86,138.18 191.5,139.5 Z"/></g>
<g><path style="opacity:1" fill="#858685" d="M 166.5,137.5 C 173.675,139.231 176.342,143.898 174.5,151.5C 171.948,150.307 169.448,148.973 167,147.5C 166.502,144.183 166.335,140.85 166.5,137.5 Z"/></g>
<g><path style="opacity:1" fill="#909190" d="M 15.5,139.5 C 18.6223,140.561 21.6223,141.895 24.5,143.5C 32.707,147.77 41.0404,151.77 49.5,155.5C 49.5,155.833 49.5,156.167 49.5,156.5C 49.5,159.833 49.5,163.167 49.5,166.5C 38.1667,160.833 26.8333,155.167 15.5,149.5C 15.5,146.167 15.5,142.833 15.5,139.5 Z"/></g>
<g><path style="opacity:1" fill="#a2a3a2" d="M 32.5,139.5 C 40.8177,142.992 48.8177,146.992 56.5,151.5C 54.3649,153.071 52.0316,154.404 49.5,155.5C 41.0404,151.77 32.707,147.77 24.5,143.5C 26.8485,141.659 29.5152,140.326 32.5,139.5 Z"/></g>
<g><path style="opacity:1" fill="#acadac" d="M 191.5,139.5 C 194.167,140.833 196.833,142.167 199.5,143.5C 199.5,146.833 199.5,150.167 199.5,153.5C 196.833,152.167 194.167,150.833 191.5,149.5C 191.5,146.167 191.5,142.833 191.5,139.5 Z"/></g>
<g><path style="opacity:1" fill="#b0b1b0" d="M 266.5,139.5 C 269.485,140.326 272.151,141.659 274.5,143.5C 271.833,144.833 269.167,146.167 266.5,147.5C 266.167,147.5 265.833,147.5 265.5,147.5C 263.365,145.929 261.032,144.596 258.5,143.5C 260.849,141.659 263.515,140.326 266.5,139.5 Z"/></g>
<g><path style="opacity:1" fill="#6d6e6d" d="M 283.5,139.5 C 283.5,142.833 283.5,146.167 283.5,149.5C 277.959,152.437 272.292,155.104 266.5,157.5C 266.5,154.167 266.5,150.833 266.5,147.5C 269.167,146.167 271.833,144.833 274.5,143.5C 277.378,141.895 280.378,140.561 283.5,139.5 Z"/></g>
<g><path style="opacity:1" fill="#848484" d="M 140.5,143.5 C 154.818,149.992 168.818,156.992 182.5,164.5C 179.948,165.693 177.448,167.027 175,168.5C 172.358,166.762 169.525,165.429 166.5,164.5C 163.475,165.429 160.642,166.762 158,168.5C 149.911,164.206 141.745,160.039 133.5,156C 135.833,154.5 138.167,153 140.5,151.5C 138.167,150 135.833,148.5 133.5,147C 135.86,145.82 138.193,144.653 140.5,143.5 Z"/></g>
<g><path style="opacity:1" fill="#cbcccb" d="M 199.5,143.5 C 202.167,144.833 204.833,146.167 207.5,147.5C 207.83,154.2 207.497,160.866 206.5,167.5C 204.261,166.212 201.928,165.212 199.5,164.5C 199.5,164.167 199.5,163.833 199.5,163.5C 199.5,160.167 199.5,156.833 199.5,153.5C 199.5,150.167 199.5,146.833 199.5,143.5 Z"/></g>
<g><path style="opacity:1" fill="#a2a3a2" d="M 258.5,143.5 C 261.032,144.596 263.365,145.929 265.5,147.5C 263.151,149.341 260.485,150.674 257.5,151.5C 254.968,150.404 252.635,149.071 250.5,147.5C 252.849,145.659 255.515,144.326 258.5,143.5 Z"/></g>
<g><path style="opacity:1" fill="#858685" d="M 182.5,145.5 C 185.622,146.561 188.622,147.895 191.5,149.5C 194.167,150.833 196.833,152.167 199.5,153.5C 199.5,156.833 199.5,160.167 199.5,163.5C 196.833,162.5 194.167,161.5 191.5,160.5C 188.696,158.595 185.696,156.929 182.5,155.5C 182.5,152.167 182.5,148.833 182.5,145.5 Z"/></g>
<g><path style="opacity:1" fill="#b0b1b0" d="M 250.5,147.5 C 252.635,149.071 254.968,150.404 257.5,151.5C 255.151,153.341 252.485,154.674 249.5,155.5C 246.968,154.404 244.635,153.071 242.5,151.5C 244.849,149.659 247.515,148.326 250.5,147.5 Z"/></g>
<g><path style="opacity:1" fill="#646564" d="M 265.5,147.5 C 265.833,147.5 266.167,147.5 266.5,147.5C 266.5,150.833 266.5,154.167 266.5,157.5C 258.358,162.072 250.025,166.405 241.5,170.5C 241.5,167.167 241.5,163.833 241.5,160.5C 244.167,158.833 246.833,157.167 249.5,155.5C 252.485,154.674 255.151,153.341 257.5,151.5C 260.485,150.674 263.151,149.341 265.5,147.5 Z"/></g>
<g><path style="opacity:1" fill="#b0b1b0" d="M 56.5,151.5 C 59.8333,152.833 63.1667,154.167 66.5,155.5C 68.8485,157.341 71.5152,158.674 74.5,159.5C 74.5,159.833 74.5,160.167 74.5,160.5C 71.5152,161.326 68.8485,162.659 66.5,164.5C 60.9586,161.563 55.2919,158.896 49.5,156.5C 49.5,156.167 49.5,155.833 49.5,155.5C 52.0316,154.404 54.3649,153.071 56.5,151.5 Z"/></g>
<g><path style="opacity:1" fill="#a2a3a2" d="M 73.5,151.5 C 76.6223,152.561 79.6223,153.895 82.5,155.5C 80.1515,157.341 77.4848,158.674 74.5,159.5C 71.5152,158.674 68.8485,157.341 66.5,155.5C 69.0316,154.404 71.3649,153.071 73.5,151.5 Z"/></g>
<g><path style="opacity:1" fill="#a2a3a2" d="M 242.5,151.5 C 244.635,153.071 246.968,154.404 249.5,155.5C 246.833,157.167 244.167,158.833 241.5,160.5C 233.04,164.23 224.707,168.23 216.5,172.5C 210.959,175.437 205.292,178.104 199.5,180.5C 196.968,179.404 194.635,178.071 192.5,176.5C 200.281,172.108 208.281,167.941 216.5,164C 213.833,162.667 211.167,161.333 208.5,160C 210.917,158.374 213.417,156.874 216,155.5C 218.642,157.238 221.475,158.571 224.5,159.5C 230.516,156.824 236.516,154.157 242.5,151.5 Z"/></g>
<g><path style="opacity:1" fill="#848584" d="M 49.5,156.5 C 55.2919,158.896 60.9586,161.563 66.5,164.5C 71.8333,167.167 77.1667,169.833 82.5,172.5C 82.5,175.833 82.5,179.167 82.5,182.5C 71.3732,177.437 60.3732,172.103 49.5,166.5C 49.5,163.167 49.5,159.833 49.5,156.5 Z"/></g>
<g><path style="opacity:1" fill="#555454" d="M 15.5,149.5 C 26.8333,155.167 38.1667,160.833 49.5,166.5C 60.3732,172.103 71.3732,177.437 82.5,182.5C 90.6416,187.072 98.9749,191.405 107.5,195.5C 115.707,199.77 124.04,203.77 132.5,207.5C 137.974,210.738 143.64,213.738 149.5,216.5C 149.5,219.833 149.5,223.167 149.5,226.5C 146.833,225.167 144.167,223.833 141.5,222.5C 138.622,220.895 135.622,219.561 132.5,218.5C 99.7164,201.608 66.7164,184.941 33.5,168.5C 32.343,171.784 32.1764,175.118 33,178.5C 35.4476,179.973 37.9476,181.307 40.5,182.5C 40.5,185.833 40.5,189.167 40.5,192.5C 40.1681,202.855 40.5014,213.188 41.5,223.5C 44.0794,224.706 46.5794,226.039 49,227.5C 49.4983,230.817 49.665,234.15 49.5,237.5C 38.1667,232.167 26.8333,226.833 15.5,221.5C 15.5,217.833 15.5,214.167 15.5,210.5C 20.8068,213.153 26.1401,215.82 31.5,218.5C 32.487,215.232 32.8204,211.898 32.5,208.5C 32.5,205.167 32.5,201.833 32.5,198.5C 32.665,195.15 32.4983,191.817 32,188.5C 29.5524,187.027 27.0524,185.693 24.5,184.5C 21.6223,182.895 18.6223,181.561 15.5,180.5C 15.5,177.167 15.5,173.833 15.5,170.5C 18.508,171.42 21.3413,172.754 24,174.5C 24.8253,170.789 24.6586,167.122 23.5,163.5C 20.8068,162.153 18.1401,160.82 15.5,159.5C 15.5,156.167 15.5,152.833 15.5,149.5 Z"/></g>
<g><path style="opacity:1" fill="#404040" d="M 283.5,149.5 C 283.5,152.833 283.5,156.167 283.5,159.5C 280.86,160.82 278.193,162.153 275.5,163.5C 274.341,167.122 274.175,170.789 275,174.5C 277.659,172.754 280.492,171.42 283.5,170.5C 283.5,173.833 283.5,177.167 283.5,180.5C 280.378,181.561 277.378,182.895 274.5,184.5C 271.948,185.693 269.448,187.027 267,188.5C 266.502,191.817 266.335,195.15 266.5,198.5C 266.5,201.833 266.5,205.167 266.5,208.5C 266.18,211.898 266.513,215.232 267.5,218.5C 272.86,215.82 278.193,213.153 283.5,210.5C 283.5,214.167 283.5,217.833 283.5,221.5C 275.04,225.23 266.707,229.23 258.5,233.5C 258.5,216.5 258.5,199.5 258.5,182.5C 261.052,181.307 263.552,179.973 266,178.5C 266.824,175.118 266.657,171.784 265.5,168.5C 232.833,184.833 200.167,201.167 167.5,217.5C 166.341,221.122 166.175,224.789 167,228.5C 169.448,227.027 171.948,225.693 174.5,224.5C 174.167,237.85 174.501,251.183 175.5,264.5C 177.5,263.5 179.5,262.5 181.5,261.5C 182.487,264.768 182.82,268.102 182.5,271.5C 171.627,277.103 160.627,282.437 149.5,287.5C 149.5,284.167 149.5,280.833 149.5,277.5C 154.807,274.847 160.14,272.18 165.5,269.5C 166.487,266.232 166.82,262.898 166.5,259.5C 166.5,255.833 166.5,252.167 166.5,248.5C 166.665,245.15 166.498,241.817 166,238.5C 163.021,240.067 160.188,241.734 157.5,243.5C 154.833,244.5 152.167,245.5 149.5,246.5C 149.5,243.167 149.5,239.833 149.5,236.5C 156.832,234.765 159.332,230.098 157,222.5C 154.552,223.973 152.052,225.307 149.5,226.5C 149.5,223.167 149.5,219.833 149.5,216.5C 160.691,211.072 171.691,205.405 182.5,199.5C 194.151,194.341 205.484,188.675 216.5,182.5C 224.96,178.77 233.293,174.77 241.5,170.5C 250.025,166.405 258.358,162.072 266.5,157.5C 272.292,155.104 277.959,152.437 283.5,149.5 Z"/></g>
<g><path style="opacity:1" fill="#6c6c6c" d="M 15.5,159.5 C 18.1401,160.82 20.8068,162.153 23.5,163.5C 24.6586,167.122 24.8253,170.789 24,174.5C 21.3413,172.754 18.508,171.42 15.5,170.5C 15.5,166.833 15.5,163.167 15.5,159.5 Z"/></g>
<g><path style="opacity:1" fill="#525252" d="M 283.5,159.5 C 283.5,163.167 283.5,166.833 283.5,170.5C 280.492,171.42 277.659,172.754 275,174.5C 274.175,170.789 274.341,167.122 275.5,163.5C 278.193,162.153 280.86,160.82 283.5,159.5 Z"/></g>
<g><path style="opacity:1" fill="#a2a3a2" d="M 74.5,160.5 C 82.8177,163.992 90.8177,167.992 98.5,172.5C 96.3649,174.071 94.0316,175.404 91.5,176.5C 88.3777,175.439 85.3777,174.105 82.5,172.5C 77.1667,169.833 71.8333,167.167 66.5,164.5C 68.8485,162.659 71.5152,161.326 74.5,160.5 Z"/></g>
<g><path style="opacity:1" fill="#a2a3a2" d="M 191.5,160.5 C 194.167,161.5 196.833,162.5 199.5,163.5C 199.5,163.833 199.5,164.167 199.5,164.5C 196.378,165.561 193.378,166.895 190.5,168.5C 188.365,166.929 186.032,165.596 183.5,164.5C 185.849,162.659 188.515,161.326 191.5,160.5 Z"/></g>
<g><path style="opacity:1" fill="#6d6e6d" d="M 241.5,160.5 C 241.5,163.833 241.5,167.167 241.5,170.5C 233.293,174.77 224.96,178.77 216.5,182.5C 216.5,179.167 216.5,175.833 216.5,172.5C 224.707,168.23 233.04,164.23 241.5,160.5 Z"/></g>
<g><path style="opacity:1" fill="#848484" d="M 157.5,176.5 C 155.168,178.333 152.502,179.666 149.5,180.5C 141.024,176.762 132.69,172.762 124.5,168.5C 126.832,166.667 129.498,165.334 132.5,164.5C 140.976,168.238 149.31,172.238 157.5,176.5 Z"/></g>
<g><path style="opacity:1" fill="#7f7f7f" d="M 82.5,155.5 C 99.1667,163.833 115.833,172.167 132.5,180.5C 130.168,182.333 127.502,183.666 124.5,184.5C 121.361,183.43 118.361,182.096 115.5,180.5C 109.959,177.563 104.292,174.896 98.5,172.5C 90.8177,167.992 82.8177,163.992 74.5,160.5C 74.5,160.167 74.5,159.833 74.5,159.5C 77.4848,158.674 80.1515,157.341 82.5,155.5 Z"/></g>
<g><path style="opacity:1" fill="#8f8f8f" d="M 132.5,218.5 C 132.665,221.85 132.498,225.183 132,228.5C 129.552,227.027 127.052,225.693 124.5,224.5C 113.627,218.897 102.627,213.563 91.5,208.5C 74.6904,199.595 57.6904,190.928 40.5,182.5C 37.9476,181.307 35.4476,179.973 33,178.5C 32.1764,175.118 32.343,171.784 33.5,168.5C 66.7164,184.941 99.7164,201.608 132.5,218.5 Z"/></g>
<g><path style="opacity:1" fill="#909190" d="M 82.5,172.5 C 85.3777,174.105 88.3777,175.439 91.5,176.5C 96.5156,179.674 101.849,182.341 107.5,184.5C 107.5,184.833 107.5,185.167 107.5,185.5C 107.5,188.833 107.5,192.167 107.5,195.5C 98.9749,191.405 90.6416,187.072 82.5,182.5C 82.5,179.167 82.5,175.833 82.5,172.5 Z"/></g>
<g><path style="opacity:1" fill="#b0b1b0" d="M 98.5,172.5 C 104.292,174.896 109.959,177.563 115.5,180.5C 113.151,182.341 110.485,183.674 107.5,184.5C 101.849,182.341 96.5156,179.674 91.5,176.5C 94.0316,175.404 96.3649,174.071 98.5,172.5 Z"/></g>
<g><path style="opacity:1" fill="#646564" d="M 216.5,172.5 C 216.5,175.833 216.5,179.167 216.5,182.5C 205.484,188.675 194.151,194.341 182.5,199.5C 182.5,196.167 182.5,192.833 182.5,189.5C 188.36,186.738 194.026,183.738 199.5,180.5C 205.292,178.104 210.959,175.437 216.5,172.5 Z"/></g>
<g><path style="opacity:1" fill="#6c6c6c" d="M 258.5,182.5 C 247.167,188.167 235.833,193.833 224.5,199.5C 207.833,207.833 191.167,216.167 174.5,224.5C 171.948,225.693 169.448,227.027 167,228.5C 166.175,224.789 166.341,221.122 167.5,217.5C 200.167,201.167 232.833,184.833 265.5,168.5C 266.657,171.784 266.824,175.118 266,178.5C 263.552,179.973 261.052,181.307 258.5,182.5 Z"/></g>
<g><path style="opacity:1" fill="#b0b1b0" d="M 192.5,176.5 C 194.635,178.071 196.968,179.404 199.5,180.5C 194.026,183.738 188.36,186.738 182.5,189.5C 179.833,187.833 177.167,186.167 174.5,184.5C 177.485,183.674 180.151,182.341 182.5,180.5C 185.833,179.167 189.167,177.833 192.5,176.5 Z"/></g>
<g><path style="opacity:1" fill="#848584" d="M 15.5,180.5 C 18.6223,181.561 21.6223,182.895 24.5,184.5C 24.5,187.833 24.5,191.167 24.5,194.5C 21.6223,192.895 18.6223,191.561 15.5,190.5C 15.5,187.167 15.5,183.833 15.5,180.5 Z"/></g>
<g><path style="opacity:1" fill="#a2a3a2" d="M 115.5,180.5 C 118.361,182.096 121.361,183.43 124.5,184.5C 127.502,183.666 130.168,182.333 132.5,180.5C 135.696,181.929 138.696,183.595 141.5,185.5C 138.515,186.326 135.849,187.659 133.5,189.5C 130.515,190.326 127.849,191.659 125.5,193.5C 119.5,190.833 113.5,188.167 107.5,185.5C 107.5,185.167 107.5,184.833 107.5,184.5C 110.485,183.674 113.151,182.341 115.5,180.5 Z"/></g>
<g><path style="opacity:1" fill="#a2a3a2" d="M 166.5,180.5 C 168.849,182.341 171.515,183.674 174.5,184.5C 177.167,186.167 179.833,187.833 182.5,189.5C 174.293,193.77 165.96,197.77 157.5,201.5C 154.968,200.404 152.635,199.071 150.5,197.5C 155.437,194.694 160.437,191.861 165.5,189C 162.929,187.546 160.262,186.38 157.5,185.5C 160.304,183.595 163.304,181.929 166.5,180.5 Z"/></g>
<g><path style="opacity:1" fill="#646564" d="M 283.5,180.5 C 283.5,183.833 283.5,187.167 283.5,190.5C 280.378,191.561 277.378,192.895 274.5,194.5C 274.5,191.167 274.5,187.833 274.5,184.5C 277.378,182.895 280.378,181.561 283.5,180.5 Z"/></g>
<g><path style="opacity:1" fill="#6c6b6c" d="M 40.5,182.5 C 57.6904,190.928 74.6904,199.595 91.5,208.5C 91.1796,211.898 91.513,215.232 92.5,218.5C 100.411,222.372 108.245,226.372 116,230.5C 116.667,233.833 116.667,237.167 116,240.5C 113.341,238.754 110.508,237.42 107.5,236.5C 91.1509,227.659 74.4843,219.325 57.5,211.5C 55.3924,209.941 53.0591,208.608 50.5,207.5C 49.8333,203.833 49.1667,200.167 48.5,196.5C 45.8068,195.153 43.1401,193.82 40.5,192.5C 40.5,189.167 40.5,185.833 40.5,182.5 Z"/></g>
<g><path style="opacity:1" fill="#4f4f4f" d="M 258.5,182.5 C 258.5,199.5 258.5,216.5 258.5,233.5C 252.959,236.437 247.292,239.104 241.5,241.5C 241.5,231.5 241.5,221.5 241.5,211.5C 243.608,209.941 245.941,208.608 248.5,207.5C 249.833,204.167 249.833,200.833 248.5,197.5C 240.589,201.372 232.755,205.372 225,209.5C 224.502,206.183 224.335,202.85 224.5,199.5C 235.833,193.833 247.167,188.167 258.5,182.5 Z"/></g>
<g><path style="opacity:1" fill="#6c6c6c" d="M 24.5,184.5 C 27.0524,185.693 29.5524,187.027 32,188.5C 32.4983,191.817 32.665,195.15 32.5,198.5C 29.8333,197.167 27.1667,195.833 24.5,194.5C 24.5,191.167 24.5,187.833 24.5,184.5 Z"/></g>
<g><path style="opacity:1" fill="#525252" d="M 274.5,184.5 C 274.5,187.833 274.5,191.167 274.5,194.5C 271.833,195.833 269.167,197.167 266.5,198.5C 266.335,195.15 266.502,191.817 267,188.5C 269.448,187.027 271.948,185.693 274.5,184.5 Z"/></g>
<g><path style="opacity:1" fill="#848584" d="M 107.5,185.5 C 113.5,188.167 119.5,190.833 125.5,193.5C 127.635,195.071 129.968,196.404 132.5,197.5C 132.5,200.833 132.5,204.167 132.5,207.5C 124.04,203.77 115.707,199.77 107.5,195.5C 107.5,192.167 107.5,188.833 107.5,185.5 Z"/></g>
<g><path style="opacity:1" fill="#848484" d="M 141.5,185.5 C 144.151,186.49 146.817,187.49 149.5,188.5C 152.183,187.49 154.849,186.49 157.5,185.5C 160.262,186.38 162.929,187.546 165.5,189C 160.437,191.861 155.437,194.694 150.5,197.5C 144.708,195.104 139.041,192.437 133.5,189.5C 135.849,187.659 138.515,186.326 141.5,185.5 Z"/></g>
<g><path style="opacity:1" fill="#b0b1b0" d="M 133.5,189.5 C 139.041,192.437 144.708,195.104 150.5,197.5C 152.635,199.071 154.968,200.404 157.5,201.5C 155.151,203.341 152.485,204.674 149.5,205.5C 143.708,203.104 138.041,200.437 132.5,197.5C 129.968,196.404 127.635,195.071 125.5,193.5C 127.849,191.659 130.515,190.326 133.5,189.5 Z"/></g>
<g><path style="opacity:1" fill="#6d6e6d" d="M 182.5,189.5 C 182.5,192.833 182.5,196.167 182.5,199.5C 171.691,205.405 160.691,211.072 149.5,216.5C 149.5,212.833 149.5,209.167 149.5,205.5C 152.485,204.674 155.151,203.341 157.5,201.5C 165.96,197.77 174.293,193.77 182.5,189.5 Z"/></g>
<g><path style="opacity:1" fill="#525252" d="M 283.5,190.5 C 283.5,197.167 283.5,203.833 283.5,210.5C 278.193,213.153 272.86,215.82 267.5,218.5C 266.513,215.232 266.18,211.898 266.5,208.5C 273.675,206.769 276.342,202.102 274.5,194.5C 277.378,192.895 280.378,191.561 283.5,190.5 Z"/></g>
<g><path style="opacity:1" fill="#666666" d="M 40.5,192.5 C 43.1401,193.82 45.8068,195.153 48.5,196.5C 49.1667,200.167 49.8333,203.833 50.5,207.5C 53.0591,208.608 55.3924,209.941 57.5,211.5C 57.5,221.5 57.5,231.5 57.5,241.5C 54.5152,240.674 51.8485,239.341 49.5,237.5C 49.665,234.15 49.4983,230.817 49,227.5C 46.5794,226.039 44.0794,224.706 41.5,223.5C 40.5014,213.188 40.1681,202.855 40.5,192.5 Z"/></g>
<g><path style="opacity:1" fill="#848584" d="M 24.5,194.5 C 27.1667,195.833 29.8333,197.167 32.5,198.5C 32.5,201.833 32.5,205.167 32.5,208.5C 25.3251,206.769 22.6584,202.102 24.5,194.5 Z"/></g>
<g><path style="opacity:1" fill="#646564" d="M 274.5,194.5 C 276.342,202.102 273.675,206.769 266.5,208.5C 266.5,205.167 266.5,201.833 266.5,198.5C 269.167,197.167 271.833,195.833 274.5,194.5 Z"/></g>
<g><path style="opacity:1" fill="#909190" d="M 132.5,197.5 C 138.041,200.437 143.708,203.104 149.5,205.5C 149.5,209.167 149.5,212.833 149.5,216.5C 143.64,213.738 137.974,210.738 132.5,207.5C 132.5,204.167 132.5,200.833 132.5,197.5 Z"/></g>
<g><path style="opacity:1" fill="#515151" d="M 241.5,211.5 C 225.066,219.217 208.732,227.217 192.5,235.5C 191.501,245.812 191.168,256.145 191.5,266.5C 188.696,268.405 185.696,270.071 182.5,271.5C 182.82,268.102 182.487,264.768 181.5,261.5C 179.5,262.5 177.5,263.5 175.5,264.5C 174.501,251.183 174.167,237.85 174.5,224.5C 191.167,216.167 207.833,207.833 224.5,199.5C 224.335,202.85 224.502,206.183 225,209.5C 232.755,205.372 240.589,201.372 248.5,197.5C 249.833,200.833 249.833,204.167 248.5,207.5C 245.941,208.608 243.608,209.941 241.5,211.5 Z"/></g>
<g><path style="opacity:1" fill="#696869" d="M 15.5,190.5 C 18.6223,191.561 21.6223,192.895 24.5,194.5C 22.6584,202.102 25.3251,206.769 32.5,208.5C 32.8204,211.898 32.487,215.232 31.5,218.5C 26.1401,215.82 20.8068,213.153 15.5,210.5C 15.5,203.833 15.5,197.167 15.5,190.5 Z"/></g>
<g><path style="opacity:1" fill="#656665" d="M 91.5,208.5 C 102.627,213.563 113.627,218.897 124.5,224.5C 124.5,234.5 124.5,244.5 124.5,254.5C 118.708,252.104 113.041,249.437 107.5,246.5C 107.5,243.167 107.5,239.833 107.5,236.5C 110.508,237.42 113.341,238.754 116,240.5C 116.667,237.167 116.667,233.833 116,230.5C 108.245,226.372 100.411,222.372 92.5,218.5C 91.513,215.232 91.1796,211.898 91.5,208.5 Z"/></g>
<g><path style="opacity:1" fill="#404040" d="M 241.5,211.5 C 241.5,221.5 241.5,231.5 241.5,241.5C 239.151,243.341 236.485,244.674 233.5,245.5C 233.5,242.167 233.5,238.833 233.5,235.5C 233.665,232.15 233.498,228.817 233,225.5C 222.245,231.128 211.411,236.628 200.5,242C 199.544,245.394 199.211,248.894 199.5,252.5C 199.5,255.833 199.5,259.167 199.5,262.5C 197.151,264.341 194.485,265.674 191.5,266.5C 191.168,256.145 191.501,245.812 192.5,235.5C 208.732,227.217 225.066,219.217 241.5,211.5 Z"/></g>
<g><path style="opacity:1" fill="#555555" d="M 57.5,211.5 C 74.4843,219.325 91.1509,227.659 107.5,236.5C 107.5,239.833 107.5,243.167 107.5,246.5C 107.5,253.167 107.5,259.833 107.5,266.5C 104.515,265.674 101.849,264.341 99.5,262.5C 99.5,259.167 99.5,255.833 99.5,252.5C 99.7892,248.894 99.4558,245.394 98.5,242C 87.5887,236.628 76.7554,231.128 66,225.5C 65.5017,228.817 65.335,232.15 65.5,235.5C 65.5,238.833 65.5,242.167 65.5,245.5C 62.5152,244.674 59.8485,243.341 57.5,241.5C 57.5,231.5 57.5,221.5 57.5,211.5 Z"/></g>
<g><path style="opacity:1" fill="#545353" d="M 132.5,218.5 C 135.622,219.561 138.622,220.895 141.5,222.5C 139.658,230.102 142.325,234.769 149.5,236.5C 149.5,239.833 149.5,243.167 149.5,246.5C 146.833,245.5 144.167,244.5 141.5,243.5C 138.812,241.734 135.979,240.067 133,238.5C 132.502,241.817 132.335,245.15 132.5,248.5C 132.5,252.167 132.5,255.833 132.5,259.5C 132.18,262.898 132.513,266.232 133.5,269.5C 138.86,272.18 144.193,274.847 149.5,277.5C 149.5,280.833 149.5,284.167 149.5,287.5C 141.04,283.77 132.707,279.77 124.5,275.5C 124.5,268.5 124.5,261.5 124.5,254.5C 124.5,244.5 124.5,234.5 124.5,224.5C 127.052,225.693 129.552,227.027 132,228.5C 132.498,225.183 132.665,221.85 132.5,218.5 Z"/></g>
<g><path style="opacity:1" fill="#414241" d="M 15.5,221.5 C 26.8333,226.833 38.1667,232.167 49.5,237.5C 51.8485,239.341 54.5152,240.674 57.5,241.5C 59.8485,243.341 62.5152,244.674 65.5,245.5C 76.5157,251.675 87.849,257.341 99.5,262.5C 101.849,264.341 104.515,265.674 107.5,266.5C 112.974,269.738 118.64,272.738 124.5,275.5C 132.707,279.77 141.04,283.77 149.5,287.5C 149.5,290.833 149.5,294.167 149.5,297.5C 105.065,275.783 60.7318,253.783 16.5,231.5C 15.513,228.232 15.1796,224.898 15.5,221.5 Z"/></g>
<g><path style="opacity:1" fill="#313231" d="M 283.5,221.5 C 283.82,224.898 283.487,228.232 282.5,231.5C 238.268,253.783 193.935,275.783 149.5,297.5C 149.5,294.167 149.5,290.833 149.5,287.5C 160.627,282.437 171.627,277.103 182.5,271.5C 185.696,270.071 188.696,268.405 191.5,266.5C 194.485,265.674 197.151,264.341 199.5,262.5C 211.151,257.341 222.484,251.675 233.5,245.5C 236.485,244.674 239.151,243.341 241.5,241.5C 247.292,239.104 252.959,236.437 258.5,233.5C 266.707,229.23 275.04,225.23 283.5,221.5 Z"/></g>
<g><path style="opacity:1" fill="#6c6c6c" d="M 141.5,222.5 C 144.167,223.833 146.833,225.167 149.5,226.5C 149.5,229.833 149.5,233.167 149.5,236.5C 142.325,234.769 139.658,230.102 141.5,222.5 Z"/></g>
<g><path style="opacity:1" fill="#525252" d="M 149.5,236.5 C 149.5,233.167 149.5,229.833 149.5,226.5C 152.052,225.307 154.552,223.973 157,222.5C 159.332,230.098 156.832,234.765 149.5,236.5 Z"/></g>
<g><path style="opacity:1" fill="#8c8c8c" d="M 99.5,252.5 C 88.1667,246.833 76.8333,241.167 65.5,235.5C 65.335,232.15 65.5017,228.817 66,225.5C 76.7554,231.128 87.5887,236.628 98.5,242C 99.4558,245.394 99.7892,248.894 99.5,252.5 Z"/></g>
<g><path style="opacity:1" fill="#6a6a6a" d="M 233.5,235.5 C 222.167,241.167 210.833,246.833 199.5,252.5C 199.211,248.894 199.544,245.394 200.5,242C 211.411,236.628 222.245,231.128 233,225.5C 233.498,228.817 233.665,232.15 233.5,235.5 Z"/></g>
<g><path style="opacity:1" fill="#6c6c6c" d="M 141.5,243.5 C 141.817,246.572 141.484,249.572 140.5,252.5C 137.807,251.153 135.14,249.82 132.5,248.5C 132.335,245.15 132.502,241.817 133,238.5C 135.979,240.067 138.812,241.734 141.5,243.5 Z"/></g>
<g><path style="opacity:1" fill="#525252" d="M 166.5,248.5 C 163.86,249.82 161.193,251.153 158.5,252.5C 157.516,249.572 157.183,246.572 157.5,243.5C 160.188,241.734 163.021,240.067 166,238.5C 166.498,241.817 166.665,245.15 166.5,248.5 Z"/></g>
<g><path style="opacity:1" fill="#848584" d="M 141.5,243.5 C 144.167,244.5 146.833,245.5 149.5,246.5C 149.5,249.833 149.5,253.167 149.5,256.5C 147.072,255.788 144.739,254.788 142.5,253.5C 141.676,256.785 141.176,260.118 141,263.5C 138.341,261.754 135.508,260.42 132.5,259.5C 132.5,255.833 132.5,252.167 132.5,248.5C 135.14,249.82 137.807,251.153 140.5,252.5C 141.484,249.572 141.817,246.572 141.5,243.5 Z"/></g>
<g><path style="opacity:1" fill="#646564" d="M 157.5,243.5 C 157.183,246.572 157.516,249.572 158.5,252.5C 161.193,251.153 163.86,249.82 166.5,248.5C 166.5,252.167 166.5,255.833 166.5,259.5C 163.492,260.42 160.659,261.754 158,263.5C 157.824,260.118 157.324,256.785 156.5,253.5C 154.261,254.788 151.928,255.788 149.5,256.5C 149.5,253.167 149.5,249.833 149.5,246.5C 152.167,245.5 154.833,244.5 157.5,243.5 Z"/></g>
<g><path style="opacity:1" fill="#686768" d="M 65.5,235.5 C 76.8333,241.167 88.1667,246.833 99.5,252.5C 99.5,255.833 99.5,259.167 99.5,262.5C 87.849,257.341 76.5157,251.675 65.5,245.5C 65.5,242.167 65.5,238.833 65.5,235.5 Z"/></g>
<g><path style="opacity:1" fill="#515051" d="M 233.5,235.5 C 233.5,238.833 233.5,242.167 233.5,245.5C 222.484,251.675 211.151,257.341 199.5,262.5C 199.5,259.167 199.5,255.833 199.5,252.5C 210.833,246.833 222.167,241.167 233.5,235.5 Z"/></g>
<g><path style="opacity:1" fill="#6c6c6c" d="M 107.5,246.5 C 113.041,249.437 118.708,252.104 124.5,254.5C 124.5,261.5 124.5,268.5 124.5,275.5C 118.64,272.738 112.974,269.738 107.5,266.5C 107.5,259.833 107.5,253.167 107.5,246.5 Z"/></g>
<g><path style="opacity:1" fill="#6c6c6c" d="M 149.5,256.5 C 149.5,263.5 149.5,270.5 149.5,277.5C 144.193,274.847 138.86,272.18 133.5,269.5C 132.513,266.232 132.18,262.898 132.5,259.5C 135.508,260.42 138.341,261.754 141,263.5C 141.176,260.118 141.676,256.785 142.5,253.5C 144.739,254.788 147.072,255.788 149.5,256.5 Z"/></g>
<g><path style="opacity:1" fill="#505050" d="M 166.5,259.5 C 166.82,262.898 166.487,266.232 165.5,269.5C 160.14,272.18 154.807,274.847 149.5,277.5C 149.5,270.5 149.5,263.5 149.5,256.5C 151.928,255.788 154.261,254.788 156.5,253.5C 157.324,256.785 157.824,260.118 158,263.5C 160.659,261.754 163.492,260.42 166.5,259.5 Z"/></g>
</svg>
