<!-- Copyright 2000-2023 JetBrains s.r.o. and contributors. Use of this source code is governed by the Apache 2.0 license. -->
<svg version="1.1" viewBox="0 0 16 16" xmlns="http://www.w3.org/2000/svg">
  <circle cx="8" cy="8" r="6.5" fill="#45322b" stroke="#c77d55"/>
  <path d="m10.337 10.941q-0.43359 0.25195-0.89649 0.375-0.45703 0.12891-0.9375 0.12891-1.5234 0-2.3848-0.91406-0.85547-0.91406-0.85547-2.5313 0-1.6172 0.85547-2.5312 0.86133-0.91406 2.3848-0.91406 0.47461 0 0.92578 0.12305 0.45117 0.12305 0.9082 0.38086v1.1309q-0.42774-0.38086-0.86133-0.55078-0.42774-0.16992-0.97266-0.16992-1.0137 0-1.5586 0.65625-0.54492 0.65625-0.54492 1.875 0 1.2129 0.54492 1.875 0.55078 0.65625 1.5586 0.65625 0.5625 0 1.0078-0.16992 0.44531-0.17578 0.82617-0.53906z" fill="#c77d55" stroke-linecap="round" stroke-linejoin="round" stroke-width=".142" aria-label="c"/>
</svg>
