<!-- Copyright 2000-2022 JetBrains s.r.o. and contributors. Use of this source code is governed by the Apache 2.0 license. -->
<svg version="1.1" viewBox="0 0 16 16" xmlns="http://www.w3.org/2000/svg">
  <circle cx="8" cy="8" r="6.5" fill="#253627" stroke="#57965c"/>
  <path d="m9.7933 4.8258v0.93424q-0.41927-0.26888-0.8431-0.4056-0.41927-0.13672-0.84766-0.13672-0.65169 0-1.0299 0.30534-0.37826 0.30078-0.37826 0.81576 0 0.45117 0.24609 0.68815 0.25065 0.23698 0.92969 0.39648l0.48307 0.10938q0.95703 0.22331 1.3945 0.70182 0.4375 0.47852 0.4375 1.3034 0 0.9707-0.60156 1.4811-0.60156 0.51042-1.75 0.51042-0.47851 0-0.96159-0.10482-0.48307-0.10026-0.9707-0.30534v-0.97982q0.52409 0.33268 0.98893 0.48763 0.4694 0.15495 0.94336 0.15495 0.69726 0 1.0846-0.3099 0.38737-0.31445 0.38737-0.875 0-0.51042-0.26888-0.7793-0.26432-0.26888-0.92513-0.41471l-0.49219-0.11393q-0.94792-0.21419-1.3763-0.64714-0.42839-0.43294-0.42839-1.1621 0-0.91146 0.61068-1.4583 0.61523-0.55143 1.6315-0.55143 0.39193 0 0.82487 0.091146 0.43294 0.086589 0.91146 0.26432z" fill="#57965c" stroke-linecap="round" stroke-linejoin="round" stroke-width=".142" aria-label="S"/>
</svg>
